HIERARCHY
ROOT Hips
{
    OFFSET 0.000000 0.000000 0.000000
    CHANNELS 6 Xposition Yposition Zposition Zrotation Xrotation Yrotation
    JOINT Spine
    {
        OFFSET -0.000000 14.517291 0.000000
        CHANNELS 3 Zrotation Xrotation Yrotation
        JOINT Spine1
        {
            OFFSET -0.000000 37.558300 0.000000
            CHANNELS 3 Zrotation Xrotation Yrotation
            JOINT Neck
            {
                OFFSET -0.000000 37.404057 3.400369
                CHANNELS 3 Zrotation Xrotation Yrotation
                JOINT Head
                {
                    OFFSET -0.000000 24.785618 -3.540803
                    CHANNELS 3 Zrotation Xrotation Yrotation
                    End Site
                    {
                        OFFSET -0.000000 35.408028 0.000000
                    }
                }
            }
            JOINT LeftShoulder
            {
                OFFSET 6.992933 33.973492 -0.192664
                CHANNELS 3 Zrotation Xrotation Yrotation
                JOINT LeftArm
                {
                    OFFSET 21.527611 0.000000 0.000000
                    CHANNELS 3 Zrotation Xrotation Yrotation
                    JOINT LeftForeArm
                    {
                        OFFSET 56.353916 0.000000 0.000000
                        CHANNELS 3 Zrotation Xrotation Yrotation
                        JOINT LeftHand
                        {
                            OFFSET 47.774071 0.000000 0.000000
                            CHANNELS 3 Zrotation Xrotation Yrotation
                            End Site
                            {
                                OFFSET 26.556021 0.000000 0.000000
                            }
                        }
                    }
                }
            }
            JOINT RightShoulder
            {
                OFFSET -7.065357 33.973492 -0.192664
                CHANNELS 3 Zrotation Xrotation Yrotation
                JOINT RightArm
                {
                    OFFSET -21.527611 0.000000 0.000000
                    CHANNELS 3 Zrotation Xrotation Yrotation
                    JOINT RightForeArm
                    {
                        OFFSET -56.353916 0.000000 0.000000
                        CHANNELS 3 Zrotation Xrotation Yrotation
                        JOINT RightHand
                        {
                            OFFSET -47.774071 0.000000 0.000000
                            CHANNELS 3 Zrotation Xrotation Yrotation
                            End Site
                            {
                                OFFSET -26.556021 0.000000 0.000000
                            }
                        }
                    }
                }
            }
        }
    }
    JOINT LeftUpLeg
    {
        OFFSET 17.704014 0.000000 0.000000
        CHANNELS 3 Zrotation Xrotation Yrotation
        JOINT LeftLeg
        {
            OFFSET -0.000000 -81.181816 0.000000
            CHANNELS 3 Zrotation Xrotation Yrotation
            JOINT LeftFoot
            {
                OFFSET -0.000000 -62.821102 0.000000
                CHANNELS 3 Zrotation Xrotation Yrotation
                JOINT LeftToeBase
                {
                    OFFSET -0.000000 -11.507608 26.556021
                    CHANNELS 3 Zrotation Xrotation Yrotation
                    End Site
                    {
                        OFFSET -0.000000 0.000000 7.081605
                    }
                }
            }
        }
    }
    JOINT RightUpLeg
    {
        OFFSET -17.704014 0.000000 0.000000
        CHANNELS 3 Zrotation Xrotation Yrotation
        JOINT RightLeg
        {
            OFFSET -0.000000 -81.181816 0.000000
            CHANNELS 3 Zrotation Xrotation Yrotation
            JOINT RightFoot
            {
                OFFSET -0.000000 -62.821102 0.000000
                CHANNELS 3 Zrotation Xrotation Yrotation
                JOINT RightToeBase
                {
                    OFFSET -0.000000 -11.507608 26.556021
                    CHANNELS 3 Zrotation Xrotation Yrotation
                    End Site
                    {
                        OFFSET -0.000000 0.000000 7.081605
                    }
                }
            }
        }
    }
}
MOTION
Frames:    11
Frame Time:    0.008333
-10.169138    158.311005    -92.931076    -2.819344    -5.722425    48.107121    -2.173340    -2.732455    -0.183489    -0.435270    0.390239    -0.046642    -4.752224    6.192286    -21.570534    19.983374    2.445515    -19.734493    21.864344    -13.747679    -18.197495    -2.251849    -14.477258    -41.416725    -6.953722    2.919913    -97.598015    -8.164763    -2.696243    -32.020020    -20.781059    -6.871579    -3.340877    17.480055    -26.121284    51.622818    -4.624765    1.086398    14.899690    -8.364170    -0.910341    34.496731    22.730639    0.960220    -3.974133    -9.499276    22.302862    -19.602013    -3.897967    -23.225132    41.612282    0.000000    0.000000    0.000000    -10.735909    -13.135792    -21.820400    4.516083    13.704381    -18.612944    6.444846    11.033263    -10.368290    0.000000    0.000000    0.000000    
-10.138306    158.306717    -92.946136    -2.825616    -5.696188    48.071342    -2.163826    -2.800258    -0.146067    -0.442172    0.427067    -0.033852    -4.755206    6.188627    -21.570515    19.970798    2.450346    -19.736330    21.906950    -13.781744    -18.171085    -2.239503    -14.475419    -41.359138    -7.091051    2.622786    -97.762321    -8.487989    -3.096573    -31.836905    -20.798832    -6.869613    -3.329378    17.453835    -26.108467    51.605160    -4.640484    1.094611    14.883883    -8.370264    -0.902222    34.492043    22.700756    0.967426    -3.966742    -9.507092    22.291578    -19.582401    -3.874678    -23.238163    41.623680    0.000000    0.000000    0.000000    -10.770020    -13.130375    -21.772085    4.573745    13.658994    -18.595398    6.439760    11.010966    -10.408251    0.000000    0.000000    0.000000    
-10.152426    158.307419    -92.970680    -2.818157    -5.713738    48.084091    -2.158621    -2.749389    -0.144988    -0.411678    0.378927    -0.033691    -4.810390    6.203438    -21.571171    20.006737    2.463031    -19.730524    21.915033    -13.795356    -18.151352    -2.230638    -14.559632    -41.338394    -7.119738    2.556964    -97.798019    -8.537252    -3.184974    -31.855988    -20.830229    -6.856639    -3.315806    17.421917    -26.081465    51.591244    -4.673203    1.075391    14.874762    -8.347848    -0.910033    34.485493    22.710369    0.953226    -4.004605    -9.529370    22.317978    -19.559261    -3.866943    -23.238892    41.627834    0.000000    0.000000    0.000000    -10.757679    -13.108194    -21.802280    4.556285    13.624058    -18.601604    6.435446    11.052214    -10.385126    0.000000    0.000000    0.000000    
-10.124243    158.305222    -92.979370    -2.824784    -5.692686    48.048313    -2.150254    -2.818476    -0.111430    -0.410197    0.416298    -0.024160    -4.839670    6.209576    -21.572828    20.021158    2.474809    -19.730198    21.926224    -13.803541    -18.115952    -2.237081    -14.640205    -41.355389    -7.194308    2.532686    -97.818031    -8.534336    -3.300909    -31.831499    -20.858690    -6.860936    -3.294670    17.430872    -26.082890    51.585449    -4.677996    1.084152    14.871772    -8.349673    -0.901043    34.482479    22.690451    0.965080    -4.001418    -9.543124    22.300978    -19.543343    -3.844100    -23.245781    41.644394    0.000000    0.000000    0.000000    -10.768790    -13.118599    -21.829285    4.549128    13.600421    -18.588972    6.417264    11.063801    -10.338261    0.000000    0.000000    0.000000    
-10.115149    158.303650    -92.996727    -2.816890    -5.695503    48.033813    -2.135409    -2.820214    -0.093300    -0.418566    0.417261    -0.019400    -4.853132    6.194308    -21.569109    20.021948    2.503504    -19.729239    21.945265    -13.803407    -18.084066    -2.222367    -14.700418    -41.366821    -7.213601    2.473868    -97.839249    -8.516277    -3.389184    -31.845911    -20.865503    -6.858515    -3.288562    17.433819    -26.095625    51.596355    -4.668298    1.090555    14.884746    -8.367551    -0.900331    34.474098    22.680576    0.981600    -4.013951    -9.549974    22.295887    -19.561138    -3.830034    -23.265697    41.677410    0.000000    0.000000    0.000000    -10.768157    -13.107633    -21.859861    4.528327    13.576417    -18.572395    6.427578    11.090046    -10.315210    0.000000    0.000000    0.000000    
-10.104751    158.302017    -93.009964    -2.806737    -5.691585    48.021858    -2.130995    -2.837751    -0.078137    -0.428255    0.435041    -0.013924    -4.847781    6.176784    -21.563572    20.011003    2.518586    -19.727013    21.958637    -13.802764    -18.068268    -2.225357    -14.833543    -41.378872    -7.319893    2.543948    -97.841125    -8.508449    -3.444806    -31.844746    -20.874401    -6.853867    -3.277733    17.434969    -26.086113    51.593872    -4.701053    1.077403    14.905325    -8.351433    -0.902415    34.463230    22.663166    0.997356    -4.028842    -9.553929    22.283512    -19.566668    -3.804058    -23.257580    41.701523    0.000000    0.000000    0.000000    -10.780483    -13.099343    -21.886936    4.524422    13.563259    -18.541569    6.414908    11.102376    -10.310959    0.000000    0.000000    0.000000    
-10.098693    158.297028    -93.025269    -2.796911    -5.686264    48.008297    -2.134922    -2.848157    -0.064422    -0.426281    0.439248    -0.007881    -4.839643    6.173154    -21.566803    19.988478    2.528052    -19.735287    21.963856    -13.809399    -18.074757    -2.223706    -14.904938    -41.368584    -7.325290    2.531423    -97.852974    -8.562907    -3.445654    -31.894844    -20.878231    -6.854142    -3.273909    17.445648    -26.088539    51.613312    -4.706943    1.068104    14.924119    -8.350381    -0.907993    34.440075    22.643705    1.014526    -4.031636    -9.556502    22.265991    -19.525215    -3.798017    -23.255701    41.675518    0.000000    0.000000    0.000000    -10.791595    -13.094495    -21.873732    4.524552    13.547916    -18.548220    6.423986    11.102017    -10.298611    0.000000    0.000000    0.000000    
-10.087530    158.294601    -93.038139    -2.778695    -5.681697    47.995270    -2.137187    -2.858056    -0.054783    -0.437311    0.458473    -0.002269    -4.834992    6.149116    -21.572050    19.969992    2.546932    -19.745623    21.970516    -13.816509    -18.082224    -2.211551    -14.960566    -41.348568    -7.272809    2.481850    -97.875214    -8.636971    -3.411444    -31.955227    -20.878340    -6.851785    -3.270899    17.452621    -26.097317    51.627903    -4.718431    1.064923    14.959893    -8.328055    -0.901078    34.438774    22.620020    1.043706    -4.024650    -9.556081    22.242558    -19.505293    -3.802903    -23.267445    41.668282    0.000000    0.000000    0.000000    -10.808796    -13.083779    -21.889122    4.517592    13.542692    -18.517401    6.422804    11.097340    -10.299155    0.000000    0.000000    0.000000    
-10.079620    158.293777    -93.050697    -2.765228    -5.679383    47.986286    -2.142898    -2.866416    -0.054943    -0.444509    0.483620    0.002625    -4.619313    5.897122    -21.552376    19.553118    2.714607    -19.811018    21.989887    -13.838646    -18.073421    -2.217323    -15.011913    -41.339813    -7.212612    2.446419    -97.921516    -8.666230    -3.373942    -31.977562    -20.868366    -6.867269    -3.274632    17.449545    -26.091663    51.644981    -4.735206    1.063345    14.991696    -8.328067    -0.899211    34.439884    22.598324    1.062041    -3.996320    -9.534013    22.233280    -19.523703    -3.791090    -23.255552    41.649220    0.000000    0.000000    0.000000    -10.818893    -13.077397    -21.903151    4.508269    13.537378    -18.504881    6.424293    11.100626    -10.287397    0.000000    0.000000    0.000000    
-10.073112    158.290924    -93.060608    -2.752132    -5.681644    47.972519    -2.147098    -2.871825    -0.045275    -0.441411    0.503242    -0.000773    -4.644109    5.870164    -21.559029    19.574347    2.741409    -19.816683    21.994707    -13.855805    -18.087070    -2.222732    -15.058952    -41.311222    -7.152220    2.421944    -97.972031    -8.710484    -3.319713    -32.013893    -20.875689    -6.874660    -3.274450    17.453983    -26.095890    51.662617    -4.738105    1.077522    15.023351    -8.329667    -0.885138    34.456264    22.583580    1.081939    -3.983604    -9.530216    22.233988    -19.513960    -3.803280    -23.279818    41.643131    0.000000    0.000000    0.000000    -10.826896    -13.070456    -21.920265    4.498889    13.540235    -18.469547    6.410104    11.098912    -10.266493    0.000000    0.000000    0.000000    
-10.072058    158.287567    -93.074783    -2.745023    -5.679640    47.965397    -2.140425    -2.877887    -0.055113    -0.459838    0.519701    0.004211    -4.650792    5.835723    -21.568880    19.579077    2.773995    -19.830036    22.004583    -13.892581    -18.101559    -2.232718    -15.059662    -41.286011    -7.059496    2.360302    -98.022316    -8.727712    -3.270123    -32.085178    -20.875877    -6.873690    -3.288025    17.474461    -26.106564    51.704926    -4.739224    1.098891    15.044818    -8.345071    -0.868233    34.465233    22.571459    1.082021    -3.955684    -9.520180    22.248135    -19.531609    -3.784651    -23.273251    41.637985    0.000000    0.000000    0.000000    -10.837128    -13.068374    -21.912943    4.505498    13.529617    -18.489645    6.405568    11.116694    -10.258320    0.000000    0.000000    0.000000    
